<svg xmlns="http://www.w3.org/2000/svg" width="41.098" height="41.098" viewBox="0 0 41.098 41.098">
  <path id="Icon_awesome-facebook-square" data-name="Icon awesome-facebook-square" d="M36.694,2.25H4.4A4.4,4.4,0,0,0,0,6.653V38.944a4.4,4.4,0,0,0,4.4,4.4H16.994V29.375H11.215V22.8h5.779V17.786c0-5.7,3.394-8.851,8.593-8.851a35.012,35.012,0,0,1,5.093.444v5.6H27.811c-2.826,0-3.708,1.754-3.708,3.553V22.8h6.31L29.4,29.375H24.1V43.348H36.694a4.4,4.4,0,0,0,4.4-4.4V6.653a4.4,4.4,0,0,0-4.4-4.4Z" transform="translate(0 -2.25)" fill="#fff"/>
</svg>
