<svg xmlns="http://www.w3.org/2000/svg" width="54" height="55" viewBox="0 0 54 55">
  <g id="google_icon" transform="translate(-0.185)">
    <ellipse id="Ellipse_63" data-name="Ellipse 63" cx="27" cy="27.5" rx="27" ry="27.5" transform="translate(0.185)" fill="#e92929"/>
    <path id="Icon_awesome-google" data-name="Icon awesome-google" d="M27.594,14.913c0,8-5.479,13.695-13.571,13.695a14.023,14.023,0,0,1,0-28.046,13.485,13.485,0,0,1,9.4,3.67L19.609,7.9C14.617,3.084,5.332,6.7,5.332,14.585a8.784,8.784,0,0,0,8.691,8.855c5.553,0,7.633-3.981,7.961-6.045H14.023V12.572h13.35A12.293,12.293,0,0,1,27.594,14.913Z" transform="translate(13.545 13.209)" fill="#f2f2f2"/>
  </g>
</svg>
