<svg xmlns="http://www.w3.org/2000/svg" width="41.098" height="41.098" viewBox="0 0 41.098 41.098">
  <path id="Subtraction_20" data-name="Subtraction 20" d="M36.694,41.1H24.1l-7.11,0L4.4,41.1a4.408,4.408,0,0,1-4.4-4.4V4.4A4.409,4.409,0,0,1,4.4,0h32.29a4.409,4.409,0,0,1,4.4,4.4V36.695A4.408,4.408,0,0,1,36.694,41.1ZM15.341,8.051a7.3,7.3,0,0,0-7.29,7.29V25.756a7.3,7.3,0,0,0,7.29,7.29H25.755a7.3,7.3,0,0,0,7.291-7.29V15.341a7.3,7.3,0,0,0-7.291-7.29ZM25.755,30.964H15.341a5.224,5.224,0,0,1-5.207-5.207V15.341a5.224,5.224,0,0,1,5.207-5.207H25.755a5.224,5.224,0,0,1,5.208,5.207V25.756a5.224,5.224,0,0,1-5.208,5.207ZM20.548,14.3a6.249,6.249,0,1,0,6.25,6.249A6.256,6.256,0,0,0,20.548,14.3Zm6.77-2.083a1.562,1.562,0,1,0,1.562,1.562A1.564,1.564,0,0,0,27.318,12.217Zm-6.77,12.5a4.166,4.166,0,1,1,4.166-4.166A4.17,4.17,0,0,1,20.548,24.714Z" fill="#fff"/>
</svg>
