<svg xmlns="http://www.w3.org/2000/svg" width="149" height="149" viewBox="0 0 149 149">
  <g id="lesson_tick" transform="translate(-886 -1538)">
    <circle id="lesson_tick-2" data-name="lesson_tick" cx="74.5" cy="74.5" r="74.5" transform="translate(886 1538)" fill="#009fd8"/>
    <path id="Icon_awesome-check" data-name="Icon awesome-check" d="M18.567,44.542.8,26.775a2.733,2.733,0,0,1,0-3.866l3.865-3.866a2.733,2.733,0,0,1,3.866,0L20.5,31.013,46.135,5.378a2.733,2.733,0,0,1,3.866,0l3.865,3.866a2.733,2.733,0,0,1,0,3.866L22.433,44.542A2.733,2.733,0,0,1,18.567,44.542Z" transform="translate(933.167 1587.54)" fill="#fff"/>
  </g>
</svg>
