<svg xmlns="http://www.w3.org/2000/svg" width="149" height="149" viewBox="0 0 149 149">
  <g id="lesson_delivery" transform="translate(-1500 -1538)">
    <circle id="lesson_delivery-2" data-name="lesson_delivery" cx="74.5" cy="74.5" r="74.5" transform="translate(1500 1538)" fill="#009fd8"/>
    <path id="iconmonstr-delivery-1" d="M6.833,37.167H2.278A2.279,2.279,0,0,1,0,34.889V30.333H34.167V9.833H44.8a4.739,4.739,0,0,1,4.41,2.521c1.353,2.141,3.5,5.54,4.8,7.694a4.57,4.57,0,0,1,.656,2.358v10.2a4.31,4.31,0,0,1-4.556,4.556H47.833a6.833,6.833,0,0,1-13.667,0H20.5a6.833,6.833,0,0,1-13.667,0Zm6.833-2.733a2.733,2.733,0,1,1-2.733,2.733A2.735,2.735,0,0,1,13.667,34.433Zm27.333,0a2.733,2.733,0,1,1-2.733,2.733A2.736,2.736,0,0,1,41,34.433Zm-9.111-6.378H0V5.278A2.279,2.279,0,0,1,2.278,3H29.611a2.279,2.279,0,0,1,2.278,2.278Zm6.833-13.667v6.833h10.74l-3.25-5.685a2.275,2.275,0,0,0-1.977-1.148H38.722Z" transform="translate(1547.167 1589)" fill="#fff" fill-rule="evenodd"/>
  </g>
</svg>
