<svg xmlns="http://www.w3.org/2000/svg" width="149" height="149" viewBox="0 0 149 149">
  <g id="lesson_admin" transform="translate(-271 -1538)">
    <path id="lesson_admin-2" data-name="lesson_admin" d="M74.5,0A74.5,74.5,0,1,1,0,74.5,74.57,74.57,0,0,1,74.5,0Z" transform="translate(271 1538)" fill="#009fd8"/>
    <path id="Icon_awesome-user-alt" data-name="Icon awesome-user-alt" d="M26.2,29.472A14.736,14.736,0,1,0,11.461,14.736,14.74,14.74,0,0,0,26.2,29.472Zm13.1,3.275H33.657a17.813,17.813,0,0,1-14.92,0H13.1A13.1,13.1,0,0,0,0,45.845v1.637a4.913,4.913,0,0,0,4.912,4.912h42.57a4.913,4.913,0,0,0,4.912-4.912V45.845A13.1,13.1,0,0,0,39.3,32.746Z" transform="translate(319 1586)" fill="#fff"/>
  </g>
</svg>
