<svg xmlns="http://www.w3.org/2000/svg" width="41.098" height="41.098" viewBox="0 0 41.098 41.098">
  <path id="Icon_awesome-pinterest-square" data-name="Icon awesome-pinterest-square" d="M41.1,6.653V38.944a4.4,4.4,0,0,1-4.4,4.4H14.164a23.506,23.506,0,0,0,2.514-5.44c.275-1.055,1.4-5.357,1.4-5.357.734,1.4,2.881,2.587,5.165,2.587,6.8,0,11.687-6.247,11.687-14.008,0-7.44-6.073-13.008-13.889-13.008-9.724,0-14.88,6.522-14.88,13.632,0,3.3,1.761,7.412,4.568,8.724.431.2.651.11.752-.3.073-.312.459-1.844.624-2.55a.665.665,0,0,0-.156-.642,8.781,8.781,0,0,1-1.679-5.137,9.751,9.751,0,0,1,10.173-9.779c5.532,0,9.412,3.77,9.412,9.164,0,6.091-3.073,10.311-7.082,10.311a3.276,3.276,0,0,1-3.339-4.073c.633-2.679,1.862-5.568,1.862-7.5,0-4.862-6.926-4.192-6.926,2.293a8.231,8.231,0,0,0,.67,3.348c-2.88,12.183-3.312,12.338-2.715,17.668l.2.073H4.4a4.4,4.4,0,0,1-4.4-4.4V6.653a4.4,4.4,0,0,1,4.4-4.4H36.694A4.4,4.4,0,0,1,41.1,6.653Z" transform="translate(0 -2.25)" fill="#fff"/>
</svg>
