<svg xmlns="http://www.w3.org/2000/svg" width="55" height="55" viewBox="0 0 55 55">
  <g id="twitter_icon" transform="translate(0.418)">
    <circle id="Ellipse_62" data-name="Ellipse 62" cx="27.5" cy="27.5" r="27.5" transform="translate(-0.418)" fill="#0dbbc8"/>
    <path id="Icon_awesome-twitter" data-name="Icon awesome-twitter" d="M25.975,9.241c.018.257.018.514.018.772,0,7.844-5.97,16.882-16.882,16.882A16.767,16.767,0,0,1,0,24.23a12.274,12.274,0,0,0,1.433.073A11.883,11.883,0,0,0,8.8,21.769a5.944,5.944,0,0,1-5.548-4.115,7.482,7.482,0,0,0,1.121.092,6.275,6.275,0,0,0,1.561-.2,5.934,5.934,0,0,1-4.758-5.823v-.073a5.976,5.976,0,0,0,2.682.753A5.942,5.942,0,0,1,2.021,4.465a16.865,16.865,0,0,0,12.234,6.209,6.7,6.7,0,0,1-.147-1.359,5.939,5.939,0,0,1,10.269-4.06,11.682,11.682,0,0,0,3.766-1.433,5.917,5.917,0,0,1-2.608,3.27,11.9,11.9,0,0,0,3.417-.918,12.754,12.754,0,0,1-2.976,3.068Z" transform="translate(14.475 14.924)" fill="#f2f2f2"/>
  </g>
</svg>
