<svg xmlns="http://www.w3.org/2000/svg" width="41.098" height="41.098" viewBox="0 0 41.098 41.098">
  <path id="Icon_awesome-twitter-square" data-name="Icon awesome-twitter-square" d="M36.694,2.25H4.4A4.4,4.4,0,0,0,0,6.653V38.944a4.4,4.4,0,0,0,4.4,4.4H36.694a4.4,4.4,0,0,0,4.4-4.4V6.653A4.4,4.4,0,0,0,36.694,2.25ZM32.208,16.818c.018.257.018.523.018.78,0,7.953-6.055,17.118-17.118,17.118a17.039,17.039,0,0,1-9.238-2.7,12.675,12.675,0,0,0,1.449.073,12.063,12.063,0,0,0,7.467-2.569,6.024,6.024,0,0,1-5.623-4.174,6.484,6.484,0,0,0,2.715-.11,6.017,6.017,0,0,1-4.816-5.908v-.073a6.013,6.013,0,0,0,2.715.761A6,6,0,0,1,7.1,15.01a5.941,5.941,0,0,1,.816-3.036,17.083,17.083,0,0,0,12.4,6.293,6.029,6.029,0,0,1,10.265-5.495A11.79,11.79,0,0,0,34.4,11.323a6,6,0,0,1-2.642,3.312,11.973,11.973,0,0,0,3.468-.936A12.664,12.664,0,0,1,32.208,16.818Z" transform="translate(0 -2.25)" fill="#fff"/>
</svg>
